# xmcd
#
# Track frame offsets: 
#        175
#        16457
#        25247
#        41125
#        57777
#        71065
#        83090
#        94817
#        107837
#        123052
#        135577
#        149692
#        165197
#
# Disc length: 2459 seconds
#
# Revision: 1
# Processed by: cddbd v1.5.2PL0 Copyright (c) Steve Scherf et al.
# Submitted via: ExactAudioCopy v1.0b3
#
DISCID=ab09990d
DTITLE=JONATHAN EDWARDS and THE SELDOM SCENE - BLUE RIDGE
DYEAR=1988
DGENRE=Bluegrass
TTITLE0=Don't Thsi Road Look Rough And Rocky
TTITLE1=How Long Have I Been Waiting For You
TTITLE2=Blue Ridge
TTITLE3=Seven Daffodils
TTITLE4=Sunshine
TTITLE5=Back To Where I Don't Belong
TTITLE6=If I Gave You
TTITLE7=Honey, I Won't Be Around
TTITLE8=Only A Hobo
TTITLE9=God Gave You To Me
TTITLE10=Little Hands
TTITLE11=I Don't Believe I'll Stay Here Anymore
TTITLE12=Don't Crawfish Me, Baby
EXTD=1988
EXTT0=
EXTT1=
EXTT2=
EXTT3=
EXTT4=
EXTT5=
EXTT6=
EXTT7=
EXTT8=
EXTT9=
EXTT10=
EXTT11=
EXTT12=
PLAYORDER=
